HIERARCHY
ROOT Hips
{
	OFFSET 0.00000 0.00000 0.00000
	CHANNELS 6 Xposition Yposition Zposition Yrotation Zrotation Xrotation 
	JOINT Lumbar
	{
		OFFSET 0 0 0
		CHANNELS 3 Zrotation Xrotation Yrotation
		JOINT Neck
		{
			OFFSET 0.00 0.2701 0.00
			CHANNELS 3 Zrotation Xrotation Yrotation
			End Site
			{
				OFFSET 0.00 0.1379 0.00
			}
		}
		JOINT RightShoulder
		{
			OFFSET 0.0119 0.2289 0.1181
			CHANNELS 3 Zrotation Xrotation Yrotation
			JOINT RightElbow
			{
				OFFSET 0.00 -0.1475 0.00
				CHANNELS 2 Zrotation Yrotation
				JOINT RightWrist
				{
					OFFSET 0.00 -0.1605 0.00
					CHANNELS 2 Zrotation Xrotation
					End Site
					{
						OFFSET 0.0040 -0.1068 0.0006
					}
				}
			}
		}
		JOINT LeftShoulder
		{
			OFFSET 0.0119 0.2289 -0.1181
			CHANNELS 3 Zrotation Xrotation Yrotation
			JOINT LeftElbow
			{
				OFFSET 0.00 -0.1475 0.00
				CHANNELS 2 Zrotation Yrotation
				JOINT LeftWrist
				{
					OFFSET 0.00 -0.1605 0.00
					CHANNELS 2 Zrotation Xrotation
					End Site
					{
						OFFSET 0.0040 -0.1068 -0.0006
					}
				}
			}
		}
	}
	JOINT RightHip
	{
		OFFSET 0.0316 -0.0424 0.0458
		CHANNELS 3 Zrotation Xrotation Yrotation
		JOINT RightKnee
		{
			OFFSET 0.00 -0.2438 0.00
			CHANNELS 1 Zrotation
			JOINT RightAnkle
			{
				OFFSET 0.00 -0.2449 0.00
				CHANNELS 3 Zrotation Xrotation Yrotation
				End Site
				{
					OFFSET 0.1237 -0.0542 0.0051
				}
			}
		}
	}
	JOINT LeftHip
	{
		OFFSET 0.0316 -0.0424 -0.0458
		CHANNELS 3 Zrotation Xrotation Yrotation
		JOINT LeftKnee
		{
			OFFSET 0.00 -0.2438 0.00
			CHANNELS 1 Zrotation
			JOINT LeftAnkle
			{
				OFFSET 0.00 -0.2449 0.00
				CHANNELS 3 Zrotation Xrotation Yrotation
				End Site
				{
					OFFSET 0.1237 -0.0542 -0.0051
				}
			}
		}
	}
}
MOTION
Frames: 33
Frame Time: 0.02
0.1091 0.02915 -0.09032 408.77321 -18.63949 -11.63346 38.61802 6.17257 -6.05829 -22.00927 12.41552 -0.83077 35.08807 -64.69339 14.2493 43.97372 84.09813 1.31281 1.15558 -41.88911 21.20698 -22.16555 67.02116 -95.22934 10.03396 -0.1602 26.02104 -0.46181 -5.47133 -18.42001 -7.88982 -3.98171 -2.79395 31.10551 15.52306 1.18769 -24.70321 -10.55502 4.20872 3.06954
0.10733 0.02887 -0.09453 408.46411 -18.47532 -11.73718 38.9616 6.04333 -6.0765 -21.81245 12.34745 -0.83077 30.85415 -63.43746 9.72502 45.34837 83.85491 1.10069 0.65645 -42.04314 20.51018 -21.2992 66.97231 -99.95404 10.922 -1.0004 25.58115 -0.83155 -5.7939 -18.19052 -7.90034 -3.90153 -2.75085 30.50132 15.18478 1.25446 -24.59884 -10.44629 4.2845 3.1106
0.10487 0.02872 -0.09868 408.29382 -18.36314 -11.77251 39.21956 5.86626 -6.19733 -21.58759 12.30159 -0.83077 26.43203 -62.25706 5.30075 47.18725 83.63114 1.0205 -0.03858 -42.2632 19.61368 -20.17388 66.84505 -105.88919 12.08192 -2.04378 25.19198 -1.3497 -6.23227 -17.88671 -7.95336 -3.81631 -2.70677 30.06199 14.61836 1.05519 -24.51411 -10.36174 4.37275 3.16046
0.10269 0.02848 -0.10284 408.05774 -18.22377 -11.83695 39.5049 5.71513 -6.26875 -21.37838 12.2453 -0.83077 22.15207 -61.04005 0.88479 48.79555 83.39915 0.87185 -0.62166 -42.45852 18.83961 -19.20039 66.76668 -110.9379 13.04239 -2.93797 24.78529 -1.80016 -6.58295 -17.62412 -7.98902 -3.73683 -2.66522 29.55183 14.14695 0.95915 -24.42911 -10.26842 4.45695 3.20723
0.10067 0.02834 -0.10706 407.83272 -18.09986 -11.91109 39.84172 5.54805 -6.35099 -21.15919 12.18847 -0.83077 17.61771 -59.83239 -3.77074 50.50301 83.16129 0.75883 -1.30143 -42.63332 17.92694 -18.07862 66.63254 -117.38887 14.32046 -4.06871 24.35435 -2.25016 -7.07229 -17.3287 -8.01664 -3.64377 -2.61548 29.02502 13.71037 0.94126 -24.30492 -10.16326 4.53511 3.25053
0.09814 0.02804 -0.11113 407.61737 -17.95485 -11.94775 40.04884 5.40218 -6.43493 -20.95473 12.13891 -0.83077 13.57982 -58.62534 -7.89149 52.10503 82.94169 0.60296 -1.82693 -42.86522 17.25526 -17.20379 66.59463 -121.25674 15.01208 -4.76401 23.98719 -2.73815 -7.30681 -17.08715 -8.07088 -3.577 -2.58207 28.57066 13.14824 0.70157 -24.26738 -10.08877 4.62808 3.30272
0.09442 0.02734 -0.11483 407.40062 -17.75252 -11.90406 39.9321 5.32597 -6.50521 -20.77936 12.10227 -0.83077 10.89348 -57.37657 -10.64751 53.33734 82.76572 0.29796 -1.87154 -43.24646 17.32482 -17.09997 66.85658 -117.14809 13.89889 -4.11027 23.77428 -3.27903 -6.77281 -16.98235 -8.1901 -3.58941 -2.59726 28.29057 12.28931 -0.15462 -24.47158 -10.10169 4.76417 3.38088
0.09021 0.02647 -0.11838 407.18834 -17.52502 -11.82392 39.68545 5.27251 -6.57324 -20.62244 12.0726 -0.83077 8.7271 -56.13022 -12.85137 54.43896 82.60827 -0.05458 -1.7553 -43.68102 17.64006 -17.25029 67.21529 -110.48836 12.20563 -3.0273 23.6265 -3.85553 -5.98558 -16.94095 -8.33442 -3.6275 -2.62834 28.07526 11.31337 -1.21391 -24.76086 -10.14355 4.91367 3.46702
0.0862 0.02566 -0.12199 406.96967 -17.29979 -11.75585 39.48883 5.20889 -6.63723 -20.46889 12.04136 -0.83077 6.36649 -54.8988 -15.25059 55.5758 82.44408 -0.3867 -1.71727 -44.08628 17.82588 -17.26755 67.52028 -105.36043 10.85676 -2.20535 23.45391 -4.42653 -5.33974 -16.88855 -8.46582 -3.65008 -2.64987 27.82064 10.39479 -2.13559 -25.0076 -10.16689 5.05353 3.54718
0.08225 0.02494 -0.12562 406.77223 -17.11378 -11.70342 39.32571 5.14326 -6.72347 -20.26573 12.00483 -0.83077 3.82029 -53.60225 -17.8829 56.83181 82.27336 -0.71065 -1.66475 -44.51642 18.07858 -17.34747 67.86431 -98.73323 9.18292 -1.11763 23.25899 -4.95931 -4.58877 -16.75343 -8.6045 -3.68819 -2.68088 27.61276 9.44975 -3.25538 -25.2736 -10.21343 5.20891 3.63762
0.07808 0.024 -0.12916 406.53236 -16.84106 -11.61186 39.06502 5.08734 -6.76486 -20.16949 11.97978 -0.83077 1.7882 -52.44111 -19.89754 57.80162 82.12049 -1.06283 -1.60135 -44.90507 18.25426 -17.36359 68.15022 -94.56905 8.03658 -0.47197 23.13024 -5.57605 -3.99262 -16.81282 -8.73418 -3.70075 -2.69633 27.32159 8.53605 -4.0102 -25.51661 -10.21851 5.33486 3.70839
0.07337 0.0225 -0.13248 406.15285 -16.32193 -11.41128 38.55128 5.05682 -6.65427 -20.3732 11.9924 -0.83077 1.03512 -51.65106 -20.36198 58.01767 82.01202 -1.49653 -1.54896 -45.17844 18.14763 -17.11786 68.25948 -98.1454 8.55594 -1.20917 23.12671 -6.43291 -3.90814 -17.34018 -8.82571 -3.63126 -2.66167 26.77787 7.73053 -3.68145 -25.70013 -10.09929 5.3769 3.7231
0.06846 0.0208 -0.1357 405.7345 -15.71933 -11.17502 37.94789 5.03454 -6.50388 -20.68183 12.01463 -0.83077 0.78373 -50.99697 -20.22123 57.9472 81.92103 -1.95435 -1.48986 -45.4057 17.95812 -16.80514 68.30596 -104.2201 9.61203 -2.39359 23.19493 -7.36843 -3.9841 -18.07056 -8.9081 -3.53629 -2.61147 26.14935 6.96362 -2.98175 -25.85317 -9.93766 5.38855 3.7176
0.06366 0.01921 -0.13895 405.34636 -15.16236 -10.96155 37.3951 5.00629 -6.38944 -20.93714 12.02757 -0.83077 0.31398 -50.28202 -20.34388 58.00224 81.82198 -2.39243 -1.43175 -45.64547 17.81345 -16.53947 68.37658 -108.94241 10.3772 -3.33572 23.25747 -8.25693 -3.97074 -18.7447 -8.99956 -3.45628 -2.57048 25.56219 6.18401 -2.46793 -26.00338 -9.79716 5.41376 3.72127
0.05876 0.01754 -0.14228 404.90251 -14.56905 -10.71786 36.79295 4.98911 -6.19782 -21.21882 12.06229 -0.83077 -0.17336 -49.56431 -20.49355 58.07196 81.72338 -2.8711 -1.3769 -45.92224 17.6457 -16.21124 68.46881 -114.50654 11.3216 -4.43105 23.20913 -9.1972 -4.01545 -19.27272 -9.07255 -3.36242 -2.52079 24.96209 5.37732 -1.88918 -26.22567 -9.65008 5.44096 3.72557
0.05405 0.01599 -0.14541 404.56909 -14.03571 -10.53055 36.27797 4.94939 -6.15973 -21.4678 12.05292 -0.83077 -0.51807 -48.88328 -20.45388 58.04586 81.62861 -3.26789 -1.31565 -46.11097 17.5047 -15.99556 68.5002 -118.92623 12.02659 -5.31507 23.4073 -10.04429 -3.98365 -20.14775 -9.17977 -3.29158 -2.48556 24.37218 4.64073 -1.3538 -26.29116 -9.50596 5.45605 3.72329
0.04982 0.01478 -0.14806 404.51848 -13.65512 -10.49471 35.99158 4.85465 -6.53501 -21.62203 11.92695 -0.83077 -0.5381 -48.28226 -20.01092 57.81317 81.53302 -3.45416 -1.23955 -46.0615 17.4431 -16.09321 68.37587 -119.74909 11.95351 -5.54477 24.27219 -10.64527 -3.67547 -21.97032 -9.39825 -3.28525 -2.49171 23.79284 4.06287 -1.03586 -25.9156 -9.38276 5.44969 3.71069
0.04582 0.01372 -0.1505 404.58632 -13.34342 -10.51867 35.80221 4.7347 -7.06894 -21.73576 11.75484 -0.83077 -0.44406 -47.71177 -19.40539 57.49563 81.44215 -3.55323 -1.15784 -45.92593 17.41234 -16.30701 68.1926 -119.32497 11.62312 -5.54339 25.38058 -11.14433 -3.29035 -24.12626 -9.6485 -3.3036 -2.51317 23.23241 3.55896 -0.77135 -25.38532 -9.26344 5.43119 3.69153
0.04178 0.01262 -0.15303 404.62052 -13.02299 -10.52491 35.59244 4.62065 -7.54488 -21.85393 11.5989 -0.83077 -0.44055 -47.11863 -18.89715 57.22694 81.35337 -3.67763 -1.07868 -45.83368 17.37652 -16.47639 68.03784 -119.35612 11.40155 -5.62199 26.37621 -11.66934 -2.9593 -26.1053 -9.87477 -3.31423 -2.52921 22.6895 3.03921 -0.47763 -24.93623 -9.14064 5.41532 3.67345
0.03746 0.01138 -0.1556 404.56771 -12.6071 -10.49313 35.28279 4.53203 -7.96412 -22.03443 11.46357 -0.83077 -0.25768 -46.56487 -18.27288 56.90948 81.2463 -3.86225 -0.99907 -45.72216 17.30213 -16.61136 67.87359 -119.8985 11.22462 -5.81306 27.38778 -12.28128 -2.55505 -28.20389 -10.14166 -3.31004 -2.53874 22.03791 2.4482 -0.19462 -24.44209 -9.02354 5.41093 3.66282
0.03378 0.01048 -0.15802 404.72526 -12.404 -10.55122 35.20123 4.38224 -8.53432 -22.07449 11.27423 -0.83077 -0.42561 -45.93761 -17.85428 56.67123 81.17951 -3.90168 -0.9193 -45.63093 17.31398 -16.84259 67.71602 -119.10381 10.89672 -5.71993 28.41736 -12.68923 -2.28038 -30.12349 -10.33082 -3.34187 -2.56502 21.61266 2.01956 0.09662 -24.00306 -8.89617 5.37972 3.63523
0.03177 0.01054 -0.16009 405.42992 -12.80279 -10.87867 35.76312 4.08948 -9.52753 -21.73331 10.94705 -0.83077 -1.61246 -45.07428 -18.0896 56.72364 81.21096 -3.55083 -0.8397 -45.61583 17.57782 -17.34481 67.59013 -114.41603 10.12295 -4.80261 29.48564 -12.53701 -2.40511 -31.5212 -10.30449 -3.47622 -2.63944 21.85805 2.04921 0.39095 -23.77599 -8.73873 5.28139 3.56381
0.03039 0.01094 -0.16201 406.34255 -13.40834 -11.28887 36.54524 3.7335 -10.65828 -21.25262 10.56714 -0.83077 -3.1542 -44.14077 -18.52966 56.84963 81.28433 -3.05914 -0.76031 -45.62393 17.92398 -17.9344 67.47313 -108.49667 9.2178 -3.62128 30.55452 -12.18573 -2.65868 -32.7158 -10.19774 -3.64437 -2.72921 22.32272 2.23505 0.69841 -23.60695 -8.57127 5.1561 3.47551
0.02874 0.01116 -0.16399 407.1642 -13.89872 -11.63678 37.20183 3.39194 -11.6977 -20.83709 10.2112 -0.83077 -4.52204 -43.25462 -18.85172 56.91103 81.34689 -2.63834 -0.68144 -45.62304 18.21856 -18.46167 67.35367 -103.47495 8.4341 -2.62367 31.59056 -11.94069 -2.83649 -33.9675 -10.12315 -3.79123 -2.80834 22.65308 2.32985 1.02105 -23.39556 -8.40899 5.04042 3.39398
0.02703 0.0115 -0.166 407.97801 -14.47939 -12.08736 37.96701 3.10498 -12.86727 -20.4115 9.85326 -0.83077 -5.94087 -42.30133 -19.28261 57.1047 81.37718 -2.18387 -0.59989 -45.615 18.57314 -19.08648 67.2271 -97.0306 7.39284 -1.35607 32.77142 -11.62945 -3.08097 -35.38117 -10.06763 -3.96407 -2.90347 23.12587 2.5088 1.25793 -23.2413 -8.24378 4.93457 3.31553
0.02561 0.01166 -0.16791 408.85227 -14.92223 -12.34747 38.5598 2.69579 -13.79265 -19.97587 9.48806 -0.83077 -7.33676 -41.47455 -19.52566 57.03656 81.48166 -1.76917 -0.52388 -45.6254 18.82296 -19.52979 67.11613 -93.21506 6.8454 -0.58243 33.6491 -11.40523 -3.22242 -36.40291 -9.9536 -4.09036 -2.96872 23.35947 2.55252 1.67072 -22.99003 -8.08275 4.80312 3.22734
0.02484 0.01127 -0.16957 409.87605 -14.91537 -12.02108 38.59706 1.90997 -14.04014 -19.53268 9.11299 -0.83077 -8.60727 -40.98217 -19.30107 56.27406 81.80745 -1.48086 -0.46486 -45.70751 18.75504 -19.42979 67.06503 -97.46327 7.82229 -1.31216 33.67363 -11.51399 -3.00971 -36.40787 -9.6912 -4.08084 -2.94766 22.82781 2.14935 2.62329 -22.40199 -7.93169 4.59782 3.11131
0.02436 0.01069 -0.17114 410.94788 -14.76507 -11.50635 38.45639 1.01255 -14.03015 -19.08701 8.73409 -0.83077 -9.83953 -40.62542 -18.86039 55.23992 82.20271 -1.24011 -0.4112 -45.80257 18.58072 -19.14775 67.0265 -104.3144 9.27908 -2.53511 33.39384 -11.71051 -2.69515 -36.02177 -9.37377 -4.023 -2.89591 22.05546 1.61002 3.74319 -21.72355 -7.78598 4.36934 2.98693
0.02375 0.0102 -0.17277 411.97362 -14.69317 -11.10525 38.41497 0.20352 -14.11833 -18.65185 8.35779 -0.83077 -11.07228 -40.22738 -18.45574 54.29672 82.54699 -0.99118 -0.3539 -45.87513 18.45988 -18.96169 66.96954 -109.64621 10.4316 -3.48456 33.26365 -11.83724 -2.45412 -35.80141 -9.08557 -3.9865 -2.85814 21.42905 1.15686 4.74767 -21.12541 -7.64038 4.15822 2.86992
0.02314 0.0097 -0.17435 413.10407 -14.57572 -10.59289 38.30838 -0.76233 -14.29342 -18.1722 7.97223 -0.83078 -12.38417 -39.74077 -18.32879 53.48247 82.96943 -0.68511 -0.30141 -46.01981 18.31843 -18.72147 66.96481 -116.343 11.93841 -4.6337 33.0896 -12.07907 -2.10748 -35.62068 -8.77665 -3.95379 -2.8208 20.66352 0.6102 5.91391 -20.37088 -7.48347 3.91832 2.73773
0.02261 0.00918 -0.176 414.03141 -14.51263 -10.26119 38.28645 -1.43281 -14.22146 -17.78642 7.61046 -0.83078 -13.52313 -39.47209 -17.55922 52.3477 83.25161 -0.50551 -0.24054 -46.01553 18.19589 -18.55133 66.85633 -120.84554 12.82901 -5.48664 32.92997 -12.10983 -1.94872 -35.27225 -8.49899 -3.90129 -2.77509 20.11829 0.21945 6.78897 -19.91077 -7.35182 3.732 2.63476
0.02221 0.00865 -0.17789 414.33138 -14.66697 -10.52055 38.59285 -1.2111 -13.5575 -17.66144 7.27547 -0.83078 -14.14349 -39.77021 -15.15752 50.28261 83.0726 -0.71277 -0.15212 -45.61068 18.13059 -18.6038 66.4395 -118.54325 11.85129 -5.41237 32.92455 -11.49188 -2.38693 -34.51204 -8.32049 -3.80552 -2.71356 20.32249 0.33121 6.76347 -20.36566 -7.28599 3.70991 2.62013
0.02189 0.00812 -0.17986 414.43471 -14.87484 -10.96008 38.98075 -0.69652 -12.64947 -17.63144 6.97235 -0.83078 -14.59819 -40.2841 -12.10124 47.92799 82.7604 -1.03696 -0.05577 -45.05358 18.09098 -18.73492 65.92122 -113.97573 10.24803 -5.02397 32.93717 -10.66736 -3.00737 -33.60525 -8.17594 -3.69136 -2.64461 20.74189 0.59738 6.44772 -21.10593 -7.24591 3.74084 2.63431
